<svg width="40" height="40" viewBox="0 0 40 40" fill="none" xmlns="http://www.w3.org/2000/svg">
<path d="M36.6167 30.5497C36.6167 31.1497 36.4834 31.7663 36.2 32.3663C35.9167 32.9663 35.55 33.533 35.0667 34.0663C34.25 34.9663 33.35 35.6163 32.3334 36.033C31.3334 36.4497 30.25 36.6663 29.0834 36.6663C27.3834 36.6663 25.5667 36.2663 23.65 35.4497C21.7334 34.633 19.8167 33.533 17.9167 32.1497C16 30.7497 14.1834 29.1997 12.45 27.483C10.7334 25.7497 9.18337 23.933 7.80004 22.033C6.43337 20.133 5.33337 18.233 4.53337 16.3497C3.73337 14.4497 3.33337 12.633 3.33337 10.8997C3.33337 9.76634 3.53337 8.68301 3.93337 7.68301C4.33337 6.66634 4.96671 5.73301 5.85004 4.89967C6.91671 3.84967 8.08337 3.33301 9.31671 3.33301C9.78337 3.33301 10.25 3.43301 10.6667 3.63301C11.1 3.83301 11.4834 4.13301 11.7834 4.56634L15.65 10.0163C15.95 10.433 16.1667 10.8163 16.3167 11.183C16.4667 11.533 16.55 11.883 16.55 12.1997C16.55 12.5997 16.4334 12.9997 16.2 13.383C15.9834 13.7663 15.6667 14.1663 15.2667 14.5663L14 15.883C13.8167 16.0663 13.7334 16.283 13.7334 16.5497C13.7334 16.683 13.75 16.7997 13.7834 16.933C13.8334 17.0663 13.8834 17.1663 13.9167 17.2663C14.2167 17.8163 14.7334 18.533 15.4667 19.3997C16.2167 20.2663 17.0167 21.1497 17.8834 22.033C18.7834 22.9163 19.65 23.733 20.5334 24.483C21.4 25.2163 22.1167 25.7163 22.6834 26.0163C22.7667 26.0497 22.8667 26.0997 22.9834 26.1497C23.1167 26.1997 23.25 26.2163 23.4 26.2163C23.6834 26.2163 23.9 26.1163 24.0834 25.933L25.35 24.683C25.7667 24.2663 26.1667 23.9497 26.55 23.7497C26.9334 23.5163 27.3167 23.3997 27.7334 23.3997C28.05 23.3997 28.3834 23.4663 28.75 23.6163C29.1167 23.7663 29.5 23.983 29.9167 24.2663L35.4334 28.183C35.8667 28.483 36.1667 28.833 36.35 29.2497C36.5167 29.6663 36.6167 30.083 36.6167 30.5497Z" stroke="white" stroke-width="1.5" stroke-miterlimit="10"/>
</svg>
