<svg width="50" height="50" viewBox="0 0 50 50" fill="none" xmlns="http://www.w3.org/2000/svg">
<path d="M6.86669 42.9207L20.125 29.6624M36.8209 23.7666L32.8521 35.6749C32.7885 35.8654 32.6799 36.0377 32.5356 36.1773C32.3913 36.3169 32.2154 36.4197 32.0229 36.477L7.69377 43.7103C7.47458 43.7754 7.24174 43.7791 7.02058 43.7211C6.79942 43.6631 6.59842 43.5455 6.43945 43.3811C6.28048 43.2168 6.16963 43.012 6.11896 42.789C6.0683 42.5661 6.07976 42.3335 6.1521 42.1166L14.0521 18.4207C14.1087 18.2506 14.2013 18.0946 14.3235 17.9634C14.4457 17.8322 14.5947 17.7288 14.7604 17.6603L25.9834 13.0395C26.2115 12.9452 26.4625 12.9207 26.7046 12.9689C26.9467 13.0171 27.1691 13.1359 27.3438 13.3103L36.5188 22.4874C36.6829 22.6515 36.7982 22.8581 36.8515 23.0841C36.9049 23.31 36.8942 23.5463 36.8209 23.7666Z" stroke="#28A745" stroke-width="3" stroke-linecap="round" stroke-linejoin="round"/>
<path d="M38.3395 6.62897L43.2645 11.554C43.6346 11.908 43.9303 12.3325 44.1341 12.8024C44.3379 13.2723 44.4459 13.7782 44.4515 14.2903C44.4572 14.8025 44.3605 15.3106 44.1671 15.7849C43.9737 16.2592 43.6875 16.6901 43.3253 17.0523C42.9632 17.4144 42.5323 17.7006 42.058 17.894C41.5837 18.0874 41.0756 18.1841 40.5634 18.1784C40.0512 18.1728 39.5454 18.0649 39.0755 17.861C38.6056 17.6572 38.1811 17.3616 37.827 16.9915L32.9 12.0665C32.205 11.3401 31.8221 10.3705 31.8332 9.36532C31.8444 8.36013 32.2486 7.39925 32.9594 6.68843C33.6702 5.97761 34.6311 5.57336 35.6363 5.56225C36.6415 5.55113 37.6132 5.93404 38.3395 6.62897Z" fill="#28A745" stroke="#28A745" stroke-width="3" stroke-linecap="round" stroke-linejoin="round"/>
<path d="M24.5438 25.2416C24.2555 24.9432 23.9107 24.7051 23.5294 24.5413C23.1482 24.3775 22.7381 24.2913 22.3232 24.2877C21.9082 24.2841 21.4967 24.3632 21.1127 24.5203C20.7286 24.6774 20.3797 24.9095 20.0863 25.2029C19.7929 25.4963 19.5609 25.8452 19.4037 26.2293C19.2466 26.6133 19.1675 27.0248 19.1711 27.4398C19.1747 27.8547 19.261 28.2648 19.4247 28.646C19.5885 29.0273 19.8266 29.3721 20.125 29.6604C20.7144 30.2296 21.5038 30.5446 22.3232 30.5375C23.1425 30.5304 23.9263 30.2017 24.5057 29.6223C25.0851 29.0429 25.4138 28.2591 25.4209 27.4398C25.428 26.6204 25.113 25.831 24.5438 25.2416Z" stroke="#28A745" stroke-width="3" stroke-linecap="round" stroke-linejoin="round"/>
</svg>
