<svg width="76" height="76" viewBox="0 0 76 76" fill="none" xmlns="http://www.w3.org/2000/svg">
<rect width="76" height="76" rx="38" fill="white"/>
<path d="M47.1667 28.833H47.1834M29.6667 21.333H46.3334C50.9357 21.333 54.6667 25.064 54.6667 29.6663V46.333C54.6667 50.9354 50.9357 54.6663 46.3334 54.6663H29.6667C25.0643 54.6663 21.3334 50.9354 21.3334 46.333V29.6663C21.3334 25.064 25.0643 21.333 29.6667 21.333ZM44.6667 36.9497C44.8724 38.3368 44.6355 39.7534 43.9896 40.998C43.3438 42.2427 42.322 43.252 41.0694 43.8825C39.8169 44.5129 38.3975 44.7323 37.013 44.5096C35.6286 44.2868 34.3496 43.6331 33.3581 42.6416C32.3666 41.6501 31.7129 40.3711 31.4902 38.9867C31.2674 37.6023 31.4868 36.1828 32.1173 34.9303C32.7477 33.6778 33.757 32.6559 35.0017 32.0101C36.2463 31.3642 37.663 31.1273 39.05 31.333C40.4649 31.5428 41.7748 32.2021 42.7862 33.2135C43.7976 34.2249 44.4569 35.5348 44.6667 36.9497Z" stroke="#1E1E1E" stroke-width="4" stroke-linecap="round" stroke-linejoin="round"/>
</svg>
