<svg width="76" height="76" viewBox="0 0 76 76" fill="none" xmlns="http://www.w3.org/2000/svg">
<rect width="76" height="76" rx="38" fill="white"/>
<path d="M48 23C49.3261 23 50.5979 23.5268 51.5355 24.4645C52.4732 25.4021 53 26.6739 53 28V48C53 49.3261 52.4732 50.5979 51.5355 51.5355C50.5979 52.4732 49.3261 53 48 53H28C26.6739 53 25.4021 52.4732 24.4645 51.5355C23.5268 50.5979 23 49.3261 23 48V28C23 26.6739 23.5268 25.4021 24.4645 24.4645C25.4021 23.5268 26.6739 23 28 23H48ZM48 26.3333H28C27.558 26.3333 27.134 26.5089 26.8215 26.8215C26.5089 27.134 26.3333 27.558 26.3333 28V48C26.3333 48.442 26.5089 48.866 26.8215 49.1785C27.134 49.4911 27.558 49.6667 28 49.6667H48C48.442 49.6667 48.866 49.4911 49.1785 49.1785C49.4911 48.866 49.6667 48.442 49.6667 48V28C49.6667 27.558 49.4911 27.134 49.1785 26.8215C48.866 26.5089 48.442 26.3333 48 26.3333ZM31.3333 34.6667C31.7416 34.6667 32.1356 34.8166 32.4406 35.0879C32.7457 35.3591 32.9406 35.7329 32.9883 36.1383L33 36.3333V44.6667C32.9995 45.0915 32.8369 45.5001 32.5453 45.8089C32.2536 46.1178 31.8551 46.3037 31.431 46.3286C31.0069 46.3535 30.5894 46.2155 30.2636 45.9429C29.9379 45.6702 29.7285 45.2835 29.6783 44.8617L29.6667 44.6667V36.3333C29.6667 35.8913 29.8423 35.4674 30.1548 35.1548C30.4674 34.8423 30.8913 34.6667 31.3333 34.6667ZM36.3333 33C36.7237 32.9999 37.1016 33.1369 37.4013 33.3869C37.701 33.637 37.9035 33.9843 37.9733 34.3683C38.309 34.1745 38.6557 34.0003 39.0117 33.8467C40.1233 33.3717 41.7883 33.11 43.2917 33.5817C44.08 33.8317 44.8717 34.2983 45.4583 35.0933C45.9833 35.8017 46.2667 36.6633 46.3233 37.6317L46.3333 38V44.6667C46.3329 45.0915 46.1702 45.5001 45.8786 45.8089C45.587 46.1178 45.1884 46.3037 44.7643 46.3286C44.3403 46.3535 43.9227 46.2155 43.5969 45.9429C43.2712 45.6702 43.0618 45.2835 43.0117 44.8617L43 44.6667V38C43 37.45 42.8667 37.1933 42.78 37.075C42.6554 36.9204 42.4841 36.8105 42.2917 36.7617C41.7117 36.5783 40.8767 36.675 40.3217 36.9117C39.4883 37.2683 38.725 37.8283 38.205 38.3467L38 38.5667V44.6667C37.9995 45.0915 37.8369 45.5001 37.5453 45.8089C37.2536 46.1178 36.8551 46.3037 36.431 46.3286C36.0069 46.3535 35.5894 46.2155 35.2636 45.9429C34.9379 45.6702 34.7285 45.2835 34.6783 44.8617L34.6667 44.6667V34.6667C34.6667 34.2246 34.8423 33.8007 35.1548 33.4882C35.4674 33.1756 35.8913 33 36.3333 33ZM31.3333 29.6667C31.7754 29.6667 32.1993 29.8423 32.5118 30.1548C32.8244 30.4674 33 30.8913 33 31.3333C33 31.7754 32.8244 32.1993 32.5118 32.5118C32.1993 32.8244 31.7754 33 31.3333 33C30.8913 33 30.4674 32.8244 30.1548 32.5118C29.8423 32.1993 29.6667 31.7754 29.6667 31.3333C29.6667 30.8913 29.8423 30.4674 30.1548 30.1548C30.4674 29.8423 30.8913 29.6667 31.3333 29.6667Z" fill="black"/>
</svg>
