<svg width="50" height="50" viewBox="0 0 50 50" fill="none" xmlns="http://www.w3.org/2000/svg">
<path d="M15.9167 37.3958V43H7V34.0833H14.5833H14.894L15.1137 33.8637L23.447 25.5303L23.6667 25.3107V25V18.3333V17.8068L23.1714 17.6279C22.0608 17.2269 21.1782 16.563 20.5042 15.6281C19.8333 14.6973 19.5 13.6621 19.5 12.5C19.5 10.9605 20.0302 9.67628 21.1032 8.60325C22.1763 7.53022 23.4605 7 25 7C26.5395 7 27.8237 7.53022 28.8968 8.60325C29.9698 9.67628 30.5 10.9605 30.5 12.5C30.5 13.6637 30.1666 14.6995 29.4958 15.6302C28.8219 16.565 27.9395 17.228 26.8293 17.6277L26.3333 17.8062V18.3333V25V25.3107L26.553 25.5303L34.8863 33.8637L35.106 34.0833H35.4167H43V43H34.0833V37.3958V37.0852L33.8637 36.8655L25.5303 28.5322L25 28.0018L24.4697 28.5322L16.1363 36.8655L15.9167 37.0852V37.3958Z" fill="#28A745" stroke="#28A745" stroke-width="1.5"/>
</svg>
