<svg width="60" height="60" viewBox="0 0 60 60" fill="none" xmlns="http://www.w3.org/2000/svg">
<path d="M30 31.25C27.6794 31.25 25.4538 32.1719 23.8128 33.8128C22.1719 35.4538 21.25 37.6794 21.25 40C21.25 42.3206 22.1719 44.5462 23.8128 46.1872C25.4538 47.8281 27.6794 48.75 30 48.75C32.3206 48.75 34.5462 47.8281 36.1872 46.1872C37.8281 44.5462 38.75 42.3206 38.75 40C38.75 37.6794 37.8281 35.4538 36.1872 33.8128C34.5462 32.1719 32.3206 31.25 30 31.25ZM26.25 40C26.25 39.0054 26.6451 38.0516 27.3483 37.3483C28.0516 36.6451 29.0054 36.25 30 36.25C30.9946 36.25 31.9484 36.6451 32.6517 37.3483C33.3549 38.0516 33.75 39.0054 33.75 40C33.75 40.9946 33.3549 41.9484 32.6517 42.6516C31.9484 43.3549 30.9946 43.75 30 43.75C29.0054 43.75 28.0516 43.3549 27.3483 42.6516C26.6451 41.9484 26.25 40.9946 26.25 40Z" fill="black"/>
<path d="M43.815 12.79L35.8675 1.64746L6.645 24.9925L5.025 24.975V25H3.75V55H56.25V25H53.845L49.06 11.0025L43.815 12.79ZM48.5625 25H23.4925L42.165 18.635L45.97 17.4175L48.5625 25ZM38.875 14.475L19.6 21.045L34.865 8.84996L38.875 14.475ZM8.75 45.4225V34.5725C9.80544 34.2 10.7641 33.596 11.5558 32.8048C12.3474 32.0136 12.9519 31.0552 13.325 30H46.675C47.0478 31.0557 47.6521 32.0145 48.4438 32.8062C49.2355 33.5978 50.1943 34.2022 51.25 34.575V45.425C50.1943 45.7977 49.2355 46.4021 48.4438 47.1938C47.6521 47.9854 47.0478 48.9443 46.675 50H13.33C12.9555 48.9442 12.3499 47.9853 11.5575 47.1934C10.7652 46.4014 9.806 45.7964 8.75 45.4225Z" fill="#28A745"/>
</svg>
