<svg width="60" height="57" viewBox="0 0 60 57" fill="none" xmlns="http://www.w3.org/2000/svg">
<mask id="path-1-inside-1_190_3037" fill="white">
<path d="M40.6201 3.53218C39.5724 3.53197 38.5378 3.76478 37.5912 4.21376C36.6446 4.66274 35.8098 5.31664 35.1471 6.12809C34.4844 6.93955 34.0105 7.88824 33.7597 8.90545C33.5089 9.92266 33.4875 10.9829 33.697 12.0094C33.754 12.2813 33.7461 12.5628 33.6738 12.831C33.6016 13.0993 33.4671 13.3467 33.2812 13.5532C33.0954 13.7597 32.8635 13.9194 32.6043 14.0194C32.3451 14.1194 32.066 14.1569 31.7896 14.1287C30.624 14.1287 29.522 14.4113 28.5542 14.9129C28.0251 13.8498 27.364 12.8577 26.5867 11.96C27.6544 11.3578 28.8185 10.9455 30.0271 10.7414V10.5965C30.0271 9.20499 30.3012 7.82706 30.8337 6.54143C31.3662 5.25579 32.1468 4.08764 33.1307 3.10366C34.1147 2.11968 35.2829 1.33914 36.5685 0.806615C37.8541 0.274088 39.2321 0 40.6236 0C42.0152 0 43.3931 0.274088 44.6788 0.806615C45.9644 1.33914 47.1325 2.11968 48.1165 3.10366C49.1005 4.08764 49.881 5.25579 50.4136 6.54143C50.9461 7.82706 51.2202 9.20499 51.2202 10.5965L51.2167 10.7414C52.6043 10.9824 53.93 11.4976 55.1162 12.2569C56.3024 13.0162 57.3253 14.0043 58.1252 15.1635C58.9251 16.3228 59.4859 17.6298 59.7747 19.0083C60.0636 20.3867 60.0748 21.809 59.8076 23.1918C59.5404 24.5746 59.0003 25.8903 58.2187 27.062C57.4371 28.2336 56.4298 29.2377 55.2557 30.0156C54.0815 30.7934 52.7641 31.3294 51.3804 31.5921C49.9967 31.8549 48.5746 31.8392 47.197 31.5459L47.9741 34.7496C48.1944 35.6592 48.2054 36.607 48.006 37.5214C47.8067 38.4358 47.4023 39.293 46.8234 40.0284C46.2445 40.7638 45.5062 41.3581 44.6641 41.7665C43.822 42.1749 42.8982 42.3868 41.9623 42.3862H39.2708C38.3348 42.386 37.411 42.1733 36.5691 41.764C35.7273 41.3547 34.9894 40.7595 34.4112 40.0234C33.8329 39.2873 33.4294 38.4295 33.231 37.5147C33.0327 36.5999 33.0447 35.652 33.2661 34.7425L34.8556 28.2009C34.9103 27.9755 35.0089 27.7631 35.1458 27.5757C35.2826 27.3884 35.455 27.2299 35.6531 27.1092C35.8512 26.9885 36.0711 26.908 36.3004 26.8723C36.5296 26.8366 36.7636 26.8464 36.989 26.9011C37.2145 26.9558 37.4269 27.0544 37.6142 27.1913C37.8015 27.3281 37.9601 27.5005 38.0808 27.6986C38.2015 27.8967 38.282 28.1167 38.3177 28.3459C38.3534 28.5751 38.3436 28.8091 38.2889 29.0345L36.6994 35.5797C36.6048 35.9692 36.5998 36.3751 36.6848 36.7668C36.7699 37.1585 36.9427 37.5258 37.1902 37.8411C37.4378 38.1563 37.7537 38.4113 38.1141 38.5867C38.4745 38.7622 38.87 38.8536 39.2708 38.854H41.9623C42.3638 38.8546 42.7601 38.764 43.1214 38.589C43.4826 38.414 43.7994 38.1592 44.0478 37.8438C44.2962 37.5285 44.4696 37.1608 44.555 36.7685C44.6404 36.3763 44.6356 35.9698 44.5408 35.5797L42.9513 29.031C42.869 28.6881 42.8913 28.3283 43.0152 27.9981C43.1392 27.668 43.3592 27.3825 43.6468 27.1784C43.9345 26.9743 44.2767 26.8611 44.6292 26.8532C44.9818 26.8453 45.3287 26.9432 45.6252 27.1342C46.5535 27.731 47.6087 28.1019 48.7062 28.2174C49.8037 28.3328 50.913 28.1896 51.9452 27.799C52.9773 27.4085 53.9036 26.7816 54.6498 25.9685C55.3961 25.1555 55.9414 24.1789 56.2422 23.1172C56.5429 22.0554 56.5908 20.9379 56.3818 19.8543C56.1729 18.7707 55.713 17.7511 55.039 16.8773C54.365 16.0034 53.4956 15.2996 52.5006 14.8223C51.5056 14.345 50.4126 14.1075 49.3093 14.1287C49.0444 14.1341 48.7817 14.0798 48.5407 13.9699C48.2996 13.8599 48.0864 13.6972 47.9168 13.4936C47.7472 13.2901 47.6255 13.051 47.5608 12.7941C47.4962 12.5372 47.4901 12.269 47.5432 12.0094C47.6374 11.5526 47.6845 11.0805 47.6845 10.593C47.6845 8.71943 46.9402 6.92258 45.6154 5.59776C44.2905 4.27293 42.4937 3.53218 40.6201 3.53218ZM8.83046 21.1896C8.83046 20.0702 9.09645 18.9669 9.60652 17.9705C10.1166 16.9741 10.8561 16.1132 11.7642 15.4587C12.6723 14.8042 13.7229 14.3748 14.8295 14.206C15.936 14.0372 17.0669 14.1337 18.1288 14.4877C19.1907 14.8417 20.1533 15.4429 20.9373 16.2419C21.7212 17.0409 22.3041 18.0148 22.6379 19.0832C22.9716 20.1516 23.0467 21.2841 22.8569 22.3873C22.6671 23.4904 22.2179 24.5327 21.5463 25.4282C21.3495 25.6906 21.2297 26.0026 21.2002 26.3292C21.1708 26.6559 21.2329 26.9843 21.3796 27.2777C21.5262 27.571 21.7517 27.8177 22.0307 27.9902C22.3097 28.1626 22.6312 28.2539 22.9592 28.2539H24.7253C25.1937 28.2539 25.6429 28.44 25.9741 28.7712C26.3053 29.1024 26.4914 29.5516 26.4914 30.02C26.4914 30.4884 26.3053 30.9376 25.9741 31.2688C25.6429 31.6 25.1937 31.7861 24.7253 31.7861H20.8152C20.5655 31.7863 20.3186 31.8394 20.091 31.942C19.8633 32.0446 19.66 32.1943 19.4944 32.3812C19.3289 32.5681 19.2048 32.7881 19.1305 33.0264C19.0562 33.2648 19.0332 33.5162 19.0632 33.7641C20.1299 42.4886 24.7465 47.4973 27.3285 49.659C27.9466 50.1747 28.2575 50.8246 28.2575 51.3862C28.2579 51.5955 28.217 51.8029 28.1372 51.9964C28.0573 52.1899 27.9399 52.3657 27.7919 52.5137C27.6439 52.6617 27.4681 52.779 27.2746 52.8589C27.0811 52.9388 26.8738 52.9797 26.6644 52.9792H5.12167C4.70011 52.9792 4.29582 52.8118 3.99773 52.5137C3.69965 52.2156 3.53218 51.8113 3.53218 51.3897C3.53218 50.8246 3.84302 50.1782 4.45761 49.6625C7.04317 47.5008 11.6633 42.4922 12.7265 33.7677C12.7564 33.5198 12.7335 33.2683 12.6591 33.03C12.5848 32.7916 12.4608 32.5717 12.2952 32.3848C12.1296 32.1978 11.9263 32.0481 11.6987 31.9456C11.471 31.843 11.2242 31.7898 10.9745 31.7896H7.06437C6.59597 31.7896 6.14676 31.6036 5.81555 31.2724C5.48434 30.9412 5.29827 30.492 5.29827 30.0236C5.29827 29.5552 5.48434 29.1059 5.81555 28.7747C6.14676 28.4435 6.59597 28.2575 7.06437 28.2575H8.83046C9.15844 28.2575 9.47995 28.1661 9.75895 27.9937C10.0379 27.8213 10.2634 27.5746 10.4101 27.2812C10.5568 26.9878 10.6189 26.6594 10.5894 26.3328C10.56 26.0061 10.4401 25.6941 10.2433 25.4317C9.32622 24.2089 8.83046 22.7181 8.83046 21.1896ZM15.8948 10.5965C14.1885 10.5961 12.5074 11.0077 10.9943 11.7963C9.48119 12.5849 8.18091 13.7273 7.204 15.1262C6.2271 16.5252 5.60247 18.1393 5.38321 19.8315C5.16396 21.5236 5.35657 23.2436 5.94466 24.8454C4.66694 25.1222 3.53665 25.8616 2.77119 26.9214C2.00572 27.9812 1.65913 29.2867 1.79807 30.5866C1.93701 31.8866 2.55166 33.0893 3.52382 33.9634C4.49599 34.8375 5.75701 35.3213 7.06437 35.3218H8.9011C7.58713 41.6727 4.12206 45.3391 2.18995 46.9533C0.967818 47.9776 0 49.553 0 51.3897C0 54.219 2.29592 56.5149 5.1252 56.5149H26.668C29.4937 56.5149 31.7896 54.219 31.7896 51.3897C31.7896 49.553 30.8218 47.9776 29.5997 46.9533C27.6676 45.3391 24.2025 41.6727 22.8885 35.3218H24.7253C26.0326 35.3213 27.2937 34.8375 28.2658 33.9634C29.238 33.0893 29.8526 31.8866 29.9916 30.5866C30.1305 29.2867 29.7839 27.9812 29.0185 26.9214C28.253 25.8616 27.1227 25.1222 25.845 24.8454C26.4331 23.2436 26.6257 21.5236 26.4064 19.8315C26.1872 18.1393 25.5625 16.5252 24.5856 15.1262C23.6087 13.7273 22.3085 12.5849 20.7954 11.7963C19.2823 11.0077 17.6011 10.5961 15.8948 10.5965Z"/>
</mask>
<path d="M40.6201 3.53218C39.5724 3.53197 38.5378 3.76478 37.5912 4.21376C36.6446 4.66274 35.8098 5.31664 35.1471 6.12809C34.4844 6.93955 34.0105 7.88824 33.7597 8.90545C33.5089 9.92266 33.4875 10.9829 33.697 12.0094C33.754 12.2813 33.7461 12.5628 33.6738 12.831C33.6016 13.0993 33.4671 13.3467 33.2812 13.5532C33.0954 13.7597 32.8635 13.9194 32.6043 14.0194C32.3451 14.1194 32.066 14.1569 31.7896 14.1287C30.624 14.1287 29.522 14.4113 28.5542 14.9129C28.0251 13.8498 27.364 12.8577 26.5867 11.96C27.6544 11.3578 28.8185 10.9455 30.0271 10.7414V10.5965C30.0271 9.20499 30.3012 7.82706 30.8337 6.54143C31.3662 5.25579 32.1468 4.08764 33.1307 3.10366C34.1147 2.11968 35.2829 1.33914 36.5685 0.806615C37.8541 0.274088 39.2321 0 40.6236 0C42.0152 0 43.3931 0.274088 44.6788 0.806615C45.9644 1.33914 47.1325 2.11968 48.1165 3.10366C49.1005 4.08764 49.881 5.25579 50.4136 6.54143C50.9461 7.82706 51.2202 9.20499 51.2202 10.5965L51.2167 10.7414C52.6043 10.9824 53.93 11.4976 55.1162 12.2569C56.3024 13.0162 57.3253 14.0043 58.1252 15.1635C58.9251 16.3228 59.4859 17.6298 59.7747 19.0083C60.0636 20.3867 60.0748 21.809 59.8076 23.1918C59.5404 24.5746 59.0003 25.8903 58.2187 27.062C57.4371 28.2336 56.4298 29.2377 55.2557 30.0156C54.0815 30.7934 52.7641 31.3294 51.3804 31.5921C49.9967 31.8549 48.5746 31.8392 47.197 31.5459L47.9741 34.7496C48.1944 35.6592 48.2054 36.607 48.006 37.5214C47.8067 38.4358 47.4023 39.293 46.8234 40.0284C46.2445 40.7638 45.5062 41.3581 44.6641 41.7665C43.822 42.1749 42.8982 42.3868 41.9623 42.3862H39.2708C38.3348 42.386 37.411 42.1733 36.5691 41.764C35.7273 41.3547 34.9894 40.7595 34.4112 40.0234C33.8329 39.2873 33.4294 38.4295 33.231 37.5147C33.0327 36.5999 33.0447 35.652 33.2661 34.7425L34.8556 28.2009C34.9103 27.9755 35.0089 27.7631 35.1458 27.5757C35.2826 27.3884 35.455 27.2299 35.6531 27.1092C35.8512 26.9885 36.0711 26.908 36.3004 26.8723C36.5296 26.8366 36.7636 26.8464 36.989 26.9011C37.2145 26.9558 37.4269 27.0544 37.6142 27.1913C37.8015 27.3281 37.9601 27.5005 38.0808 27.6986C38.2015 27.8967 38.282 28.1167 38.3177 28.3459C38.3534 28.5751 38.3436 28.8091 38.2889 29.0345L36.6994 35.5797C36.6048 35.9692 36.5998 36.3751 36.6848 36.7668C36.7699 37.1585 36.9427 37.5258 37.1902 37.8411C37.4378 38.1563 37.7537 38.4113 38.1141 38.5867C38.4745 38.7622 38.87 38.8536 39.2708 38.854H41.9623C42.3638 38.8546 42.7601 38.764 43.1214 38.589C43.4826 38.414 43.7994 38.1592 44.0478 37.8438C44.2962 37.5285 44.4696 37.1608 44.555 36.7685C44.6404 36.3763 44.6356 35.9698 44.5408 35.5797L42.9513 29.031C42.869 28.6881 42.8913 28.3283 43.0152 27.9981C43.1392 27.668 43.3592 27.3825 43.6468 27.1784C43.9345 26.9743 44.2767 26.8611 44.6292 26.8532C44.9818 26.8453 45.3287 26.9432 45.6252 27.1342C46.5535 27.731 47.6087 28.1019 48.7062 28.2174C49.8037 28.3328 50.913 28.1896 51.9452 27.799C52.9773 27.4085 53.9036 26.7816 54.6498 25.9685C55.3961 25.1555 55.9414 24.1789 56.2422 23.1172C56.5429 22.0554 56.5908 20.9379 56.3818 19.8543C56.1729 18.7707 55.713 17.7511 55.039 16.8773C54.365 16.0034 53.4956 15.2996 52.5006 14.8223C51.5056 14.345 50.4126 14.1075 49.3093 14.1287C49.0444 14.1341 48.7817 14.0798 48.5407 13.9699C48.2996 13.8599 48.0864 13.6972 47.9168 13.4936C47.7472 13.2901 47.6255 13.051 47.5608 12.7941C47.4962 12.5372 47.4901 12.269 47.5432 12.0094C47.6374 11.5526 47.6845 11.0805 47.6845 10.593C47.6845 8.71943 46.9402 6.92258 45.6154 5.59776C44.2905 4.27293 42.4937 3.53218 40.6201 3.53218ZM8.83046 21.1896C8.83046 20.0702 9.09645 18.9669 9.60652 17.9705C10.1166 16.9741 10.8561 16.1132 11.7642 15.4587C12.6723 14.8042 13.7229 14.3748 14.8295 14.206C15.936 14.0372 17.0669 14.1337 18.1288 14.4877C19.1907 14.8417 20.1533 15.4429 20.9373 16.2419C21.7212 17.0409 22.3041 18.0148 22.6379 19.0832C22.9716 20.1516 23.0467 21.2841 22.8569 22.3873C22.6671 23.4904 22.2179 24.5327 21.5463 25.4282C21.3495 25.6906 21.2297 26.0026 21.2002 26.3292C21.1708 26.6559 21.2329 26.9843 21.3796 27.2777C21.5262 27.571 21.7517 27.8177 22.0307 27.9902C22.3097 28.1626 22.6312 28.2539 22.9592 28.2539H24.7253C25.1937 28.2539 25.6429 28.44 25.9741 28.7712C26.3053 29.1024 26.4914 29.5516 26.4914 30.02C26.4914 30.4884 26.3053 30.9376 25.9741 31.2688C25.6429 31.6 25.1937 31.7861 24.7253 31.7861H20.8152C20.5655 31.7863 20.3186 31.8394 20.091 31.942C19.8633 32.0446 19.66 32.1943 19.4944 32.3812C19.3289 32.5681 19.2048 32.7881 19.1305 33.0264C19.0562 33.2648 19.0332 33.5162 19.0632 33.7641C20.1299 42.4886 24.7465 47.4973 27.3285 49.659C27.9466 50.1747 28.2575 50.8246 28.2575 51.3862C28.2579 51.5955 28.217 51.8029 28.1372 51.9964C28.0573 52.1899 27.9399 52.3657 27.7919 52.5137C27.6439 52.6617 27.4681 52.779 27.2746 52.8589C27.0811 52.9388 26.8738 52.9797 26.6644 52.9792H5.12167C4.70011 52.9792 4.29582 52.8118 3.99773 52.5137C3.69965 52.2156 3.53218 51.8113 3.53218 51.3897C3.53218 50.8246 3.84302 50.1782 4.45761 49.6625C7.04317 47.5008 11.6633 42.4922 12.7265 33.7677C12.7564 33.5198 12.7335 33.2683 12.6591 33.03C12.5848 32.7916 12.4608 32.5717 12.2952 32.3848C12.1296 32.1978 11.9263 32.0481 11.6987 31.9456C11.471 31.843 11.2242 31.7898 10.9745 31.7896H7.06437C6.59597 31.7896 6.14676 31.6036 5.81555 31.2724C5.48434 30.9412 5.29827 30.492 5.29827 30.0236C5.29827 29.5552 5.48434 29.1059 5.81555 28.7747C6.14676 28.4435 6.59597 28.2575 7.06437 28.2575H8.83046C9.15844 28.2575 9.47995 28.1661 9.75895 27.9937C10.0379 27.8213 10.2634 27.5746 10.4101 27.2812C10.5568 26.9878 10.6189 26.6594 10.5894 26.3328C10.56 26.0061 10.4401 25.6941 10.2433 25.4317C9.32622 24.2089 8.83046 22.7181 8.83046 21.1896ZM15.8948 10.5965C14.1885 10.5961 12.5074 11.0077 10.9943 11.7963C9.48119 12.5849 8.18091 13.7273 7.204 15.1262C6.2271 16.5252 5.60247 18.1393 5.38321 19.8315C5.16396 21.5236 5.35657 23.2436 5.94466 24.8454C4.66694 25.1222 3.53665 25.8616 2.77119 26.9214C2.00572 27.9812 1.65913 29.2867 1.79807 30.5866C1.93701 31.8866 2.55166 33.0893 3.52382 33.9634C4.49599 34.8375 5.75701 35.3213 7.06437 35.3218H8.9011C7.58713 41.6727 4.12206 45.3391 2.18995 46.9533C0.967818 47.9776 0 49.553 0 51.3897C0 54.219 2.29592 56.5149 5.1252 56.5149H26.668C29.4937 56.5149 31.7896 54.219 31.7896 51.3897C31.7896 49.553 30.8218 47.9776 29.5997 46.9533C27.6676 45.3391 24.2025 41.6727 22.8885 35.3218H24.7253C26.0326 35.3213 27.2937 34.8375 28.2658 33.9634C29.238 33.0893 29.8526 31.8866 29.9916 30.5866C30.1305 29.2867 29.7839 27.9812 29.0185 26.9214C28.253 25.8616 27.1227 25.1222 25.845 24.8454C26.4331 23.2436 26.6257 21.5236 26.4064 19.8315C26.1872 18.1393 25.5625 16.5252 24.5856 15.1262C23.6087 13.7273 22.3085 12.5849 20.7954 11.7963C19.2823 11.0077 17.6011 10.5961 15.8948 10.5965Z" fill="#28A745" stroke="#28A745" stroke-width="12" mask="url(#path-1-inside-1_190_3037)"/>
</svg>
