<svg width="76" height="76" viewBox="0 0 76 76" fill="none" xmlns="http://www.w3.org/2000/svg">
  <rect width="76" height="76" rx="38" fill="white"/>
  <path d="M29.5 24.5C28.9477 24.5 28.4 24.7107 28 25.1213C27.6 25.5318 27.5 26.1182 27.5 26.75V49.25C27.5 49.8818 27.6 50.4682 28 50.8787C28.4 51.2893 28.9477 51.5 29.5 51.5H46.5C47.0523 51.5 47.6 51.2893 48 50.8787C48.4 50.4682 48.5 49.8818 48.5 49.25V26.75C48.5 26.1182 48.4 25.5318 48 25.1213C47.6 24.7107 47.0523 24.5 46.5 24.5H29.5ZM40 38L30 32V44L40 38Z" fill="black"/>
</svg>
